<svg xmlns="http://www.w3.org/2000/svg" viewBox="0 0 64 64">
  <rect width="64" height="64" rx="13" fill="#fbfaf5"/>
  <g transform="translate(0 1) scale(.5)" color="#8f7138">
    <defs><g id="ray" fill="none" stroke="currentColor" stroke-linecap="round"><path d="M64 58 64 26" stroke-width="3"/><path d="M64 26c-4-2-6-5-7-9M64 26c-2-4-2-8-1-12M64 26c2-4 4-7 7-10M64 26c4-1 7-3 10-6" stroke-width="2.2"/></g></defs>
    <path d="M64 59c-2 18-8 36-5 60" fill="none" stroke="currentColor" stroke-width="6" stroke-linecap="round"/>
    <use href="#ray"/><use href="#ray" transform="rotate(30 64 58)"/><use href="#ray" transform="rotate(60 64 58)"/><use href="#ray" transform="rotate(90 64 58)"/><use href="#ray" transform="rotate(120 64 58)"/><use href="#ray" transform="rotate(150 64 58)"/><use href="#ray" transform="rotate(180 64 58)"/><use href="#ray" transform="rotate(210 64 58)"/><use href="#ray" transform="rotate(240 64 58)"/><use href="#ray" transform="rotate(270 64 58)"/><use href="#ray" transform="rotate(300 64 58)"/><use href="#ray" transform="rotate(330 64 58)"/>
    <circle cx="64" cy="58" r="8.5" fill="currentColor"/>
  </g>
</svg>
