<svg xmlns="http://www.w3.org/2000/svg" viewBox="0 0 128 128" role="img" aria-labelledby="title">
  <title id="title">Dandelion symbol</title>
  <defs><g id="ray" fill="none" stroke="currentColor" stroke-linecap="round"><path d="M64 58 64 25" stroke-width="2.15"/><path d="M64 25c-4-2-6-5-7-9M64 25c-2-4-2-8-1-12M64 25c2-4 4-7 7-10M64 25c4-1 7-3 10-6" stroke-width="1.65"/></g></defs>
  <g color="#9b7b3f">
    <path d="M64 59c-2 18-8 36-5 60" fill="none" stroke="currentColor" stroke-width="5" stroke-linecap="round"/>
    <use href="#ray"/><use href="#ray" transform="rotate(24 64 58)"/><use href="#ray" transform="rotate(48 64 58)"/><use href="#ray" transform="rotate(72 64 58)"/><use href="#ray" transform="rotate(96 64 58)"/><use href="#ray" transform="rotate(120 64 58)"/><use href="#ray" transform="rotate(144 64 58)"/><use href="#ray" transform="rotate(168 64 58)"/><use href="#ray" transform="rotate(192 64 58)"/><use href="#ray" transform="rotate(216 64 58)"/><use href="#ray" transform="rotate(240 64 58)"/><use href="#ray" transform="rotate(264 64 58)"/><use href="#ray" transform="rotate(288 64 58)"/><use href="#ray" transform="rotate(312 64 58)"/><use href="#ray" transform="rotate(336 64 58)"/>
    <circle cx="64" cy="58" r="7.5" fill="currentColor"/>
  </g>
</svg>
